<?xml version="1.0" encoding="UTF-8"?>
<svg width="10px" height="17px" viewBox="0 0 10 17" version="1.1" xmlns="http://www.w3.org/2000/svg" xmlns:xlink="http://www.w3.org/1999/xlink">
    <g stroke="none" stroke-width="1" fill="none" fill-rule="evenodd">
        <g transform="translate(-430.000000, -438.000000)" fill="#999999">
            <g transform="translate(414.000000, 188.000000)">
                <path d="M21.3088108,261.661752 L21.3088108,253.897046 C21.3088108,253.11735 20.6767422,252.485281 19.8970461,252.485281 L19.8970461,252.485281 L19.8970461,252.485281 C19.11735,252.485281 18.4852814,253.11735 18.4852814,253.897046 L18.4852814,253.897046 L18.4852814,263.073517 C18.4852814,263.463365 18.6432985,263.816306 18.8987777,264.071785 C19.1542568,264.327264 19.507198,264.485281 19.8970461,264.485281 L29.0735167,264.485281 C29.8532128,264.485281 30.4852814,263.853213 30.4852814,263.073517 C30.4852814,262.293821 29.8532128,261.661752 29.0735167,261.661752 L29.0735167,261.661752 L21.3088108,261.661752 Z" id="Combined-Shape" transform="translate(24.485281, 258.485281) rotate(-315.000000) translate(-24.485281, -258.485281) "></path>
            </g>
        </g>
    </g>
</svg>
