<?xml version="1.0" encoding="UTF-8"?>
<svg width="10px" height="17px" viewBox="0 0 10 17" version="1.1" xmlns="http://www.w3.org/2000/svg" xmlns:xlink="http://www.w3.org/1999/xlink">
    <g stroke="none" stroke-width="1" fill="none" fill-rule="evenodd">
        <g transform="translate(-906.000000, -438.000000)" fill="#999999">
            <g transform="translate(414.000000, 188.000000)">
                <path d="M490.308811,261.661752 L490.308811,253.897046 C490.308811,253.11735 489.676742,252.485281 488.897046,252.485281 L488.897046,252.485281 L488.897046,252.485281 C488.11735,252.485281 487.485281,253.11735 487.485281,253.897046 L487.485281,253.897046 L487.485281,263.073517 C487.485281,263.463365 487.643299,263.816306 487.898778,264.071785 C488.154257,264.327264 488.507198,264.485281 488.897046,264.485281 L498.073517,264.485281 C498.853213,264.485281 499.485281,263.853213 499.485281,263.073517 C499.485281,262.293821 498.853213,261.661752 498.073517,261.661752 L498.073517,261.661752 L490.308811,261.661752 Z" id="Combined-Shape" transform="translate(493.485281, 258.485281) rotate(-135.000000) translate(-493.485281, -258.485281) "></path>
            </g>
        </g>
    </g>
</svg>
