<?xml version="1.0" encoding="UTF-8"?>
<svg width="17px" height="10px" viewBox="0 0 17 10" version="1.1" xmlns="http://www.w3.org/2000/svg" xmlns:xlink="http://www.w3.org/1999/xlink">
    <g stroke="none" stroke-width="1" fill="none" fill-rule="evenodd">
        <g transform="translate(-886.000000, -599.000000)" fill="#999999">
            <g transform="translate(414.000000, 575.000000)">
                <path d="M477.308811,28.661752 L477.308811,20.8970461 C477.308811,20.11735 476.676742,19.4852814 475.897046,19.4852814 L475.897046,19.4852814 L475.897046,19.4852814 C475.11735,19.4852814 474.485281,20.11735 474.485281,20.8970461 L474.485281,20.8970461 L474.485281,30.0735167 C474.485281,30.4633647 474.643299,30.8163059 474.898778,31.0717851 C475.154257,31.3272642 475.507198,31.4852814 475.897046,31.4852814 L485.073517,31.4852814 C485.853213,31.4852814 486.485281,30.8532128 486.485281,30.0735167 C486.485281,29.2938206 485.853213,28.661752 485.073517,28.661752 L485.073517,28.661752 L477.308811,28.661752 Z" id="Combined-Shape" transform="translate(480.485281, 25.485281) rotate(-45.000000) translate(-480.485281, -25.485281) "></path>
            </g>
        </g>
    </g>
</svg>
