
<svg width="31px" height="31px" viewBox="0 0 31 31" version="1.1" xmlns="http://www.w3.org/2000/svg" xmlns:xlink="http://www.w3.org/1999/xlink">
    <!-- Generator: Sketch 49.1 (51147) - http://www.bohemiancoding.com/sketch -->
    <desc>Created with Sketch.</desc>
    <defs>
        <path d="M2,0 L23.7573593,-3.55271368e-15 C24.5530088,-4.4055508e-15 25.3160705,0.316070521 25.8786797,0.878679656 L29.1213203,4.12132034 C29.6839295,4.68392948 30,5.44699122 30,6.24264069 L30,28 C30,29.1045695 29.1045695,30 28,30 L2,30 C0.8954305,30 1.3527075e-16,29.1045695 0,28 L0,2 C-1.3527075e-16,0.8954305 0.8954305,2.02906125e-16 2,0 Z" id="path-1"></path>
        <filter x="-1.7%" y="-1.7%" width="106.7%" height="106.7%" filterUnits="objectBoundingBox" id="filter-2">
            <feOffset dx="1" dy="1" in="SourceAlpha" result="shadowOffsetOuter1"></feOffset>
            <feColorMatrix values="0 0 0 0 0   0 0 0 0 0   0 0 0 0 0  0 0 0 0.15 0" type="matrix" in="shadowOffsetOuter1"></feColorMatrix>
        </filter>
    </defs>
    <g id="Page-1" stroke="none" stroke-width="1" fill="none" fill-rule="evenodd">
        <g id="Desktop-exmaples" transform="translate(-483.000000, -1226.000000)">
            <g id="disk" transform="translate(483.000000, 1226.000000)">
                <g id="Rectangle-2">
                    <use fill="black" fill-opacity="1" filter="url(#filter-2)" xlink:href="#path-1"></use>
                    <use fill="#41A6C4" fill-rule="evenodd" xlink:href="#path-1"></use>
                </g>
                <path d="M7,0 L23,0 L23,9 C23,9.55228475 22.5522847,10 22,10 L8,10 C7.44771525,10 7,9.55228475 7,9 L7,0 Z M18,2 L18,8 L21,8 L21,2 L18,2 Z" id="Combined-Shape" fill="#FFFFFF"></path>
                <path d="M7,15 L23,15 C24.1045695,15 25,15.8954305 25,17 L25,30 L5,30 L5,17 C5,15.8954305 5.8954305,15 7,15 Z" id="Rectangle-3-Copy" fill="#FFFFFF"></path>
            </g>
        </g>
    </g>
</svg>
